<svg xmlns="http://www.w3.org/2000/svg" xmlns:xlink="http://www.w3.org/1999/xlink" version="1.1" x="0px" y="0px" viewBox="0 0 100 125" enable-background="new 0 0 100 100" xml:space="preserve"><g><path d="M94.974,13.96c-0.01-0.045-0.021-0.09-0.036-0.134c-0.007-0.021-0.009-0.041-0.018-0.061   c-0.002-0.005-0.004-0.01-0.007-0.015c-0.003-0.008-0.007-0.014-0.011-0.021c-0.018-0.041-0.039-0.08-0.061-0.12   c-0.019-0.033-0.036-0.066-0.058-0.098c-0.021-0.03-0.046-0.059-0.069-0.088c-0.01-0.011-0.018-0.023-0.028-0.035   c-0.004-0.004-0.005-0.01-0.009-0.014c-0.002-0.002-0.004-0.003-0.006-0.005c-0.014-0.015-0.029-0.027-0.043-0.042   c-0.024-0.023-0.052-0.044-0.078-0.065c-0.035-0.028-0.069-0.058-0.106-0.082c-0.027-0.018-0.058-0.033-0.087-0.048   c-0.01-0.007-0.021-0.012-0.03-0.019c-0.01-0.004-0.017-0.01-0.025-0.014c-0.023-0.011-0.046-0.02-0.07-0.029   c-0.028-0.012-0.058-0.02-0.086-0.029c-0.05-0.016-0.098-0.028-0.149-0.038c-0.012-0.002-0.021-0.007-0.033-0.009   c-0.018-0.002-0.035-0.001-0.054-0.002c-0.014-0.002-0.026-0.005-0.041-0.006c-0.038-0.004-0.076-0.004-0.115-0.003   c-0.032,0.001-0.064,0.004-0.098,0.008c-0.044,0.004-0.088,0.01-0.132,0.02c-0.022,0.004-0.045,0.007-0.067,0.014   c-0.011,0.003-0.022,0.01-0.034,0.012c-0.008,0.003-0.016,0.007-0.023,0.01c-0.02,0.006-0.041,0.009-0.063,0.017L5.785,46.848   C5.314,47.028,5.004,47.479,5,47.984c-0.003,0.504,0.303,0.958,0.771,1.145L33.48,60.193l8.867,25.992   c0.021,0.06,0.058,0.107,0.085,0.161c0.022,0.043,0.039,0.086,0.066,0.125c0.084,0.124,0.182,0.234,0.302,0.318   c0.001,0.001,0.002,0.002,0.003,0.003c0.039,0.027,0.083,0.039,0.124,0.062c0.068,0.037,0.135,0.079,0.211,0.103   c0.12,0.039,0.244,0.06,0.368,0.06c0,0,0,0,0.001,0c0.018,0,0.037-0.001,0.056-0.002s0.035-0.01,0.053-0.012   c0.097-0.008,0.19-0.028,0.281-0.06c0.032-0.011,0.064-0.021,0.095-0.034c0.092-0.04,0.179-0.09,0.26-0.152   c0.013-0.011,0.029-0.018,0.041-0.028c0.081-0.067,0.154-0.145,0.219-0.234l12.009-17.101l26.896,10.737   c0.35,0.141,0.739,0.111,1.063-0.074s0.547-0.509,0.604-0.878l9.905-64.787c0.003-0.021,0.001-0.043,0.003-0.064   C94.996,14.288,95,14.249,95,14.21c0-0.01,0-0.021,0-0.03c-0.001-0.036-0.006-0.07-0.009-0.105   C94.987,14.036,94.982,13.998,94.974,13.96z M9.58,48.011l76.563-29.545L34.269,57.869L9.58,48.011z M43.309,81.411l-7.405-21.706   l48.533-36.864L47.661,64.085c-0.006,0.006-0.007,0.015-0.013,0.021c-0.093,0.107-0.162,0.231-0.214,0.365   c-0.009,0.023-0.017,0.046-0.024,0.069c-0.008,0.024-0.02,0.047-0.025,0.072L43.309,81.411z M46.226,79.788l3.209-13.226   l4.747,1.896L46.226,79.788z M82.895,77.282L50.653,64.41L91.94,18.108L82.895,77.282z"/></g><text x="0" y="115" fill="#000000" font-size="5px" font-weight="bold" font-family="'Helvetica Neue', Helvetica, Arial-Unicode, Arial, Sans-serif">Created by Tran</text><text x="0" y="120" fill="#000000" font-size="5px" font-weight="bold" font-family="'Helvetica Neue', Helvetica, Arial-Unicode, Arial, Sans-serif">from the Noun Project</text></svg>