<svg xmlns="http://www.w3.org/2000/svg" xmlns:xlink="http://www.w3.org/1999/xlink" version="1.1" x="0px" y="0px" viewBox="0 0 201.2 240.75" style="enable-background:new 0 0 201.2 192.6;" xml:space="preserve"><style type="text/css">
	.st0{fill:none;}
	.st1{fill:#FFFFFF;stroke:#000000;stroke-width:2;stroke-miterlimit:10;}
	.st2{fill:none;stroke:#000000;stroke-width:3;stroke-miterlimit:10;}
	.st3{fill:#FFFFFF;}
	.st4{fill:#1A1A1A;}
</style><g><path d="M120.1,56.4c-7.7,7.6-8.3,19.6-1.3,26.7c3.4,3.4,7.9,5.1,12.5,5.1c5,0,10.2-2,14.2-6c7.7-7.6,8.3-19.6,1.3-26.7   S127.8,48.8,120.1,56.4z M148.5,68.8c-0.2,4.2-2.1,8.2-5.2,11.3c-3.1,3.1-7.2,4.8-11.4,5c-4.2,0.2-8-1.4-10.9-4.2   c-2.8-2.9-4.2-6.7-4-10.9c0.2-4.2,2.1-8.2,5.2-11.3c3.1-3.1,7.2-4.8,11.4-5c0.2,0,0.3,0,0.5,0c2,0,3.9,0.4,5.7,1.1   c1.8,0.7,3.3,1.8,4.7,3.2C147.3,60.7,148.7,64.6,148.5,68.8z"/><path d="M198.6,4.4V3.9l-1.3-1.3h-0.6C188.4,1.9,124.4-0.8,76.4,68c-1.6-1.1-5-3-10.5-2.5c-10.2,0.9-27.8,10.3-53.3,49.4l2.3,1.9   C25,107.4,53.1,83.5,62,85.9c0.7,0.2,1.6,0.6,2.1,2.2c-3.8,7-7.5,14.6-10.9,22.8l-0.4,0.7l14.4,14.6l-7.1,6.7l5.4,5.5l7.1-6.7   l13.5,13.8l0.8,0.8l0.9-0.2c8.2-3.3,15.8-7.3,22.9-10.3l0,0c0.1-0.1,0.1-0.2,0.2-0.3c1.5,0.5,1.9,1.4,2.1,2.1   c2.3,9-22.1,36.6-31.7,46.5l1.9,2.3c39.5-24.9,49.2-42.2,50.3-52.4c0.6-5.5-1.2-9.1-2.3-10.6C200.7,76.7,199.1,12.7,198.6,4.4z    M144.5,14.9L144.5,14.9c24.8-10.3,45.3-9.9,51.2-9.5c0.3,5.8,0.3,26.3-10.4,51l0,0l0,0L144.5,14.9L144.5,14.9L144.5,14.9z    M62.7,82.9c-8.8-2.4-28.8,13.2-40.8,23.4c21-29.5,35.4-37,44.1-37.9c4.8-0.5,7.6,1.1,8.7,1.9c-3.1,4.5-6.1,9.4-9,14.5   C65,83.9,64,83.2,62.7,82.9z M56.3,110.9c1.8-4.2,3.6-8.3,5.5-12.2l16.3,16.6l-8.9,8.7L56.3,110.9z M71.5,128.6l-1.1,1l-5,4.6   l-1.2-1.2l5-4.6l1.1-1.1l0,0l1-1l8.9-8.8l2.1-2.1l19.1-18.8l1.2,1.3l-19.1,18.8l-2.1,2.1l-8.9,8.7L71.5,128.6z M87.6,142.8   l-13-13.2l8.9-8.7l0,0l16.3,16.7C95.9,139.4,91.9,141.1,87.6,142.8z M130.4,134c-1,8.6-8.8,22.9-38.7,43.4   c10.5-11.8,26.4-31.6,24.2-40.4c-0.3-1.3-1-2.3-1.9-3c5.2-2.8,10.1-5.7,14.7-8.7l0,0C129.4,126.2,131,129.1,130.4,134z M138,114.8   c-1.1,0.8-2.1,1.6-3.2,2.4s-2.2,1.6-3.3,2.4c-1.1,0.8-2.3,1.5-3.4,2.3c-1.2,0.8-2.4,1.5-3.5,2.3c-6.6,4.2-13.9,8.2-21.8,12   l-17.1-17.4l21.2-20.9l-5.4-5.5l-21.2,20.9c0,0-17.1-17.4-17.1-17.4c10.8-21.5,25-41.3,43.1-57.2c4.8-4.2,9.8-8,15.1-11.6   c3.1-2.1,6.2-4.3,9.5-6.1c3.3-1.9,7-3.6,10.5-4.9V16l42.3,43.1C175.6,77.1,161.6,97,138,114.8z"/><path d="M20.6,151.2c8-7.8,16.3-15.1,24.3-22.9c1.4-1.3-0.7-3.5-2.1-2.1c-8,7.8-16.3,15.1-24.3,22.9   C17.1,150.4,19.2,152.5,20.6,151.2z"/><path d="M54.8,137.2C37.5,154,20.3,170.8,3,187.6c-1.4,1.3,0.7,3.5,2.1,2.1c17.3-16.8,34.5-33.6,51.8-50.4   C58.3,138,56.2,135.8,54.8,137.2z"/><path d="M66.8,150.2C55.5,161.2,44,172,32.6,183c-1.4,1.3,0.7,3.5,2.1,2.1c11.3-11,22.8-21.8,34.2-32.8   C70.3,151,68.2,148.8,66.8,150.2z"/></g><text x="0" y="207.6" fill="#000000" font-size="5px" font-weight="bold" font-family="'Helvetica Neue', Helvetica, Arial-Unicode, Arial, Sans-serif">Created by Felix Brönnimann</text><text x="0" y="212.6" fill="#000000" font-size="5px" font-weight="bold" font-family="'Helvetica Neue', Helvetica, Arial-Unicode, Arial, Sans-serif">from the Noun Project</text></svg>