<svg xmlns="http://www.w3.org/2000/svg" xmlns:xlink="http://www.w3.org/1999/xlink" version="1.1" x="0px" y="0px" viewBox="0 0 90 112.5" enable-background="new 0 0 90 90" xml:space="preserve"><g><path fill="#000000" d="M30.9,50.5c0.3,0,0.5-0.1,0.7-0.2c0.9-0.4,1.3-1.5,0.9-2.4c-0.3-0.6-0.9-1.1-1.6-1.1   c-0.3,0-0.5,0.1-0.7,0.2c-0.4,0.2-0.8,0.6-0.9,1c-0.2,0.4-0.2,0.9,0,1.4C29.5,50.1,30.2,50.5,30.9,50.5z M30.6,48.6   c0,0,0.1-0.1,0.2-0.2c0,0,0.1,0,0.1,0c0.1,0,0.2,0.1,0.3,0.2c0.1,0.2,0,0.3-0.2,0.4c-0.2,0.1-0.3,0-0.4-0.2   C30.6,48.8,30.6,48.7,30.6,48.6z"/><path fill="#000000" d="M37.1,47.8c0.3,0,0.5-0.1,0.7-0.2c0.4-0.2,0.8-0.6,0.9-1c0.2-0.4,0.2-0.9,0-1.4c-0.3-0.6-0.9-1.1-1.6-1.1   c-0.3,0-0.5,0.1-0.7,0.2c-0.4,0.2-0.8,0.6-0.9,1c-0.2,0.4-0.2,0.9,0,1.4C35.7,47.4,36.4,47.8,37.1,47.8z M36.8,45.9   c0,0,0.1-0.1,0.2-0.2c0,0,0.1,0,0.1,0c0.1,0,0.2,0.1,0.3,0.2c0,0.1,0,0.2,0,0.2c0,0-0.1,0.1-0.2,0.2c-0.2,0.1-0.3,0-0.4-0.2   C36.7,46,36.8,45.9,36.8,45.9z"/><path fill="#000000" d="M43.3,45c0.3,0,0.5-0.1,0.7-0.2c0.9-0.4,1.3-1.5,0.9-2.4c-0.3-0.6-0.9-1.1-1.6-1.1c-0.3,0-0.5,0.1-0.7,0.2   c-0.4,0.2-0.8,0.6-0.9,1c-0.2,0.4-0.2,0.9,0,1.4C41.9,44.6,42.5,45,43.3,45z M43,43.1c0,0,0.1-0.1,0.2-0.2c0,0,0.1,0,0.1,0   c0.1,0,0.2,0.1,0.3,0.2c0.1,0.2,0,0.3-0.2,0.4c-0.2,0.1-0.3,0-0.4-0.2C42.9,43.2,42.9,43.1,43,43.1z"/><path fill="#000000" d="M49.4,38.6c-0.3,0-0.5,0.1-0.7,0.2c-0.9,0.4-1.3,1.5-0.9,2.4c0.3,0.6,0.9,1.1,1.6,1.1   c0.3,0,0.5-0.1,0.7-0.2c0.9-0.4,1.3-1.5,0.9-2.4C50.8,39.1,50.1,38.6,49.4,38.6z M49.6,40.7c-0.2,0.1-0.3,0-0.4-0.2   c-0.1-0.2,0-0.3,0.2-0.4c0,0,0.1,0,0.1,0c0.1,0,0.2,0.1,0.3,0.2C49.8,40.5,49.7,40.7,49.6,40.7z"/><path fill="#000000" d="M55.6,39.5c0.3,0,0.5-0.1,0.7-0.2c0.4-0.2,0.8-0.6,0.9-1c0.2-0.4,0.2-0.9,0-1.4c-0.3-0.6-0.9-1.1-1.6-1.1   c-0.3,0-0.5,0.1-0.7,0.2c-0.4,0.2-0.8,0.6-0.9,1c-0.2,0.4-0.2,0.9,0,1.4C54.3,39.1,54.9,39.5,55.6,39.5z M55.3,37.6   c0,0,0.1-0.1,0.2-0.2c0,0,0.1,0,0.1,0c0.1,0,0.2,0.1,0.3,0.2c0,0.1,0,0.2,0,0.2c0,0-0.1,0.1-0.2,0.2c-0.2,0.1-0.3,0-0.4-0.2   C55.3,37.7,55.3,37.6,55.3,37.6z"/><path fill="#000000" d="M61.8,36.7c0.3,0,0.5-0.1,0.7-0.2c0.9-0.4,1.3-1.5,0.9-2.4c-0.3-0.6-0.9-1.1-1.6-1.1   c-0.3,0-0.5,0.1-0.7,0.2c-0.4,0.2-0.8,0.6-0.9,1c-0.2,0.4-0.2,0.9,0,1.4C60.4,36.3,61.1,36.7,61.8,36.7z M61.5,34.8   c0,0,0.1-0.1,0.2-0.2c0,0,0.1,0,0.1,0c0.1,0,0.2,0.1,0.3,0.2c0.1,0.2,0,0.3-0.2,0.4c-0.2,0.1-0.3,0-0.4-0.2   C61.5,34.9,61.5,34.8,61.5,34.8z"/><path fill="#000000" d="M68,33.9c0.3,0,0.5-0.1,0.7-0.2c0.9-0.4,1.3-1.5,0.9-2.4c-0.3-0.6-0.9-1.1-1.6-1.1c-0.3,0-0.5,0.1-0.7,0.2   c-0.4,0.2-0.8,0.6-0.9,1c-0.2,0.4-0.2,0.9,0,1.4C66.6,33.5,67.3,33.9,68,33.9z M67.8,31.9c0,0,0.1,0,0.1,0c0.1,0,0.2,0.1,0.3,0.2   c0.1,0.2,0,0.3-0.2,0.4c-0.2,0.1-0.3,0-0.4-0.2C67.6,32.1,67.7,31.9,67.8,31.9z"/><path fill="#000000" d="M87.1,24.5c-1.2-2.8-7.8-1.7-9.7-0.9L57,32.7l-6.8-2l6.2-2.8l-0.6-1.4L48,30.1l-12.6-3.7l-5.5,2.4L43,39   l-15.6,7L16,40.1l-6.8,3l3.8,3.8l-1.4,0.7l0.6,1.3l1.9-0.9l2.7,2.7l-7.1,3.2l0.6,1.4l62.3-27.9l4.5,1.7l5.2-2.4l-0.6-1.4l-4.7,2.1   l-2.5-1L78,25c0.8-0.4,2.7-0.8,4.5-0.8c2.1,0,3,0.5,3.2,0.9c0.6,1.3-3,4.9-5,5.8L64,38.4l0.2-0.9l-0.7-0.2v0l0,0l-0.7-0.2l-0.2,0.6   l-0.4,1.5L61.8,41L55.5,65l-5.4,2.4l-1.5-20.5l-0.1-1.6l-0.1-1l-0.7,0.1l-0.7,0.1L47,46l-10,4.5c-1.6,0.7-3.3,1.1-5.1,1.2L19.3,52   l0,1.5l12.7-0.4c1.9-0.1,3.8-0.5,5.6-1.3l9.5-4.2l1.6,22l8-3.6l6.8-25.8l17.7-7.9C83.2,31.5,88.3,27.2,87.1,24.5z M32.8,29.1   l2.7-1.2L46,31l-1,0.4l0.6,1.4l2.5-1.2l6.8,2l-8.3,3.7l-10.5-8.2l-0.9,1.2l9.8,7.7l-0.5,0.2L32.8,29.1z M15.5,47.4l2.8-1.3   l-0.6-1.3l-3.3,1.5l-2.6-2.7l4.2-1.9l9.7,5l-7.5,3.3L15.5,47.4z"/><rect x="39.7" y="53.2" transform="matrix(-6.572195e-02 -0.9978 0.9978 -6.572195e-02 -0.1577 107.7518)" fill="#000000" width="21.4" height="1.5"/><rect x="71.3" y="33.2" transform="matrix(-0.4152 -0.9097 0.9097 -0.4152 64.3651 123.8841)" fill="#000000" width="1.5" height="16"/><rect x="18.1" y="58.9" transform="matrix(0.9131 -0.4076 0.4076 0.9131 -21.6073 17.9305)" fill="#000000" width="26.4" height="1.5"/><rect x="25" y="13.2" transform="matrix(0.4084 0.9128 -0.9128 0.4084 39.1946 -8.0257)" fill="#000000" width="1.5" height="26"/><rect x="14.5" y="22.9" transform="matrix(0.4084 0.9128 -0.9128 0.4084 41.8099 7.2827)" fill="#000000" width="1.5" height="26"/><rect x="40.2" y="59" transform="matrix(-0.4084 -0.9128 0.9128 -0.4084 -2.3212 130.0058)" fill="#000000" width="1.5" height="13.4"/><rect x="1.6" y="61.1" transform="matrix(0.9128 -0.4084 0.4084 0.9128 -24.1255 10.7898)" fill="#000000" width="23.3" height="1.5"/><rect x="66.7" y="44.3" transform="matrix(-0.3978 -0.9175 0.9175 -0.3978 49.4788 130.1853)" fill="#000000" width="1.5" height="9.1"/></g><text x="0" y="105" fill="#000000" font-size="5px" font-weight="bold" font-family="'Helvetica Neue', Helvetica, Arial-Unicode, Arial, Sans-serif">Created by isaac claramunt</text><text x="0" y="110" fill="#000000" font-size="5px" font-weight="bold" font-family="'Helvetica Neue', Helvetica, Arial-Unicode, Arial, Sans-serif">from the Noun Project</text></svg>